<svg id="Layer_1" data-name="Layer 1" xmlns="http://www.w3.org/2000/svg" xmlns:xlink="http://www.w3.org/1999/xlink" viewBox="0 0 173.35 37.82"><defs><style>.cls-1{fill:none;}.cls-2{fill:url(#linear-gradient);}.cls-3{fill:url(#linear-gradient-2);}.cls-4{fill:url(#linear-gradient-3);}.cls-5{fill:url(#linear-gradient-4);}.cls-6{fill:url(#linear-gradient-5);}.cls-7{fill:url(#linear-gradient-6);}.cls-8{fill:url(#linear-gradient-7);}.cls-9{fill:url(#linear-gradient-8);}.cls-10{fill:url(#linear-gradient-9);}.cls-11{fill:url(#linear-gradient-10);}.cls-12{fill:url(#linear-gradient-11);}.cls-13{fill:#fff;}</style><linearGradient id="linear-gradient" x1="12.46" y1="27.2" x2="35.62" y2="27.2" gradientTransform="matrix(1, 0, 0, -1, 0, 34)" gradientUnits="userSpaceOnUse"><stop offset="0" stop-color="#6400ff"/><stop offset="1" stop-color="#aa0aff"/></linearGradient><linearGradient id="linear-gradient-2" x1="7" y1="32.03" x2="37.75" y2="32.03" gradientTransform="matrix(1, 0, 0, -1, 0, 34)" gradientUnits="userSpaceOnUse"><stop offset="0" stop-color="#8700dc"/><stop offset="1" stop-color="aqua"/></linearGradient><linearGradient id="linear-gradient-3" x1="2.67" y1="-0.58" x2="22.31" y2="-0.58" xlink:href="#linear-gradient"/><linearGradient id="linear-gradient-4" x1="4.88" y1="14.73" x2="37.86" y2="14.73" gradientTransform="matrix(1, 0, 0, -1, 0, 34)" gradientUnits="userSpaceOnUse"><stop offset="0.06" stop-color="#8700dc"/><stop offset="0.14" stop-color="#820add"/><stop offset="0.27" stop-color="#7425e1"/><stop offset="0.45" stop-color="#5d50e7"/><stop offset="0.65" stop-color="#3d8cef"/><stop offset="0.88" stop-color="#15d8fa"/><stop offset="1" stop-color="aqua"/></linearGradient><linearGradient id="linear-gradient-5" x1="-4.87" y1="17.13" x2="16.73" y2="17.13" gradientTransform="matrix(1, 0, 0, -1, 0, 34)" gradientUnits="userSpaceOnUse"><stop offset="0.09" stop-color="#8700dc"/><stop offset="0.37" stop-color="#5c51e7"/><stop offset="0.8" stop-color="#1acdf8"/><stop offset="1" stop-color="aqua"/></linearGradient><linearGradient id="linear-gradient-6" x1="6.49" y1="28.04" x2="66.95" y2="28.04" xlink:href="#linear-gradient-2"/><linearGradient id="linear-gradient-7" x1="32.82" y1="18.64" x2="54.89" y2="18.64" gradientTransform="matrix(1, 0, 0, -1, 0, 34)" gradientUnits="userSpaceOnUse"><stop offset="0" stop-color="#41af55"/><stop offset="0.03" stop-color="#3eb25c"/><stop offset="0.38" stop-color="#24d3a1"/><stop offset="0.66" stop-color="#10ebd4"/><stop offset="0.88" stop-color="#04f9f3"/><stop offset="1" stop-color="aqua"/></linearGradient><linearGradient id="linear-gradient-8" x1="-28.2" y1="4.63" x2="59.12" y2="4.63" xlink:href="#linear-gradient-2"/><linearGradient id="linear-gradient-9" x1="3.42" y1="28.12" x2="26.37" y2="28.12" xlink:href="#linear-gradient-2"/><linearGradient id="linear-gradient-10" x1="49.53" y1="39.75" x2="19.97" y2="-18.69" xlink:href="#linear-gradient-7"/><linearGradient id="linear-gradient-11" x1="14.98" y1="43.36" x2="-4.39" y2="-10.32" xlink:href="#linear-gradient-7"/></defs><path class="cls-1" d="M-3,.46" transform="translate(-1.15 -1)"/><path class="cls-1" d="M-3,.46" transform="translate(-1.15 -1)"/><path class="cls-1" d="M20.06,9.32A10.7,10.7,0,0,0,9.48,20a10.59,10.59,0,0,0,21.17,0A10.71,10.71,0,0,0,20.06,9.32Z" transform="translate(-1.15 -1)"/><path class="cls-2" d="M32.29,10.16a13.12,13.12,0,0,1,3.61,1.69C34.37,5.77,29.4,2,23.07,1.75h-.4A21.19,21.19,0,0,1,32.29,10.16Z" transform="translate(-1.15 -1)"/><path class="cls-3" d="M17.41,2.93a15.74,15.74,0,0,1,5.25-1.18A10.84,10.84,0,0,0,19.38,1,10.4,10.4,0,0,0,13,2.63,7.53,7.53,0,0,1,17.41,2.93Z" transform="translate(-1.15 -1)"/><path class="cls-4" d="M17.7,37.66c-5.2-1.39-9.64-3.84-12.61-7.32,1.76,4.54,5.66,7.8,12,8.39a17.91,17.91,0,0,0,7.73-.87A15.39,15.39,0,0,1,17.7,37.66Z" transform="translate(-1.15 -1)"/><path class="cls-5" d="M19.61,4.21a8.38,8.38,0,0,0-2.2-1.28A30.16,30.16,0,0,0,7.53,9.34a44.42,44.42,0,0,0-3,9.58A24,24,0,0,0,4,24.39C7.65,30.32,16.67,35.32,22,35.6c4.81.26,9.93-4,12.52-10.62a28.61,28.61,0,0,0,1.34-4.43,22.28,22.28,0,0,0-3.59-10.39C28.91,9.05,24.48,8.1,19.61,4.21Zm.45,26.29A10.56,10.56,0,0,1,9.48,20,10.71,10.71,0,0,1,20.06,9.32,10.72,10.72,0,0,1,30.65,20,10.58,10.58,0,0,1,20.06,30.5Z" transform="translate(-1.15 -1)"/><path class="cls-6" d="M4.56,18.92a44.42,44.42,0,0,1,3-9.58c-2.68,2.65-4.68,5.8-5.1,9.14A9.23,9.23,0,0,0,4,24.4,24,24,0,0,1,4.56,18.92Z" transform="translate(-1.15 -1)"/><path class="cls-7" d="M17.41,2.93A8.17,8.17,0,0,1,19.6,4.21c4.88,3.89,9.31,4.84,12.69,6-2.51-3.91-6-7-9.63-8.4A15.7,15.7,0,0,0,17.41,2.93Z" transform="translate(-1.15 -1)"/><path class="cls-8" d="M35.88,20.55a19.17,19.17,0,0,0,0-8.7,13.12,13.12,0,0,0-3.61-1.69A22.17,22.17,0,0,1,35.88,20.55Z" transform="translate(-1.15 -1)"/><path class="cls-9" d="M35,27a15.47,15.47,0,0,0,.92-6.46A28.61,28.61,0,0,1,34.54,25C32,31.65,26.83,35.86,22,35.6c-5.34-.28-14.37-5.29-18-11.21a17.51,17.51,0,0,0,1.1,5.95c3,3.48,7.41,5.93,12.61,7.32a15.31,15.31,0,0,0,7.09.2C29.24,36.29,32.82,32.74,35,27Z" transform="translate(-1.15 -1)"/><path class="cls-10" d="M7.53,9.34a30.16,30.16,0,0,1,9.88-6.41A7.62,7.62,0,0,0,13,2.62,15.85,15.85,0,0,0,7.53,9.34Z" transform="translate(-1.15 -1)"/><path class="cls-11" d="M38.94,19.12c-.2-4-1.29-6-3-7.27a19.17,19.17,0,0,1,0,8.7A15.47,15.47,0,0,1,35,27c-2.14,5.73-5.72,9.28-10.16,10.85A18.18,18.18,0,0,0,38.94,19.12Z" transform="translate(-1.15 -1)"/><path class="cls-12" d="M2.43,18.48c.42-3.34,2.42-6.49,5.1-9.14A15.76,15.76,0,0,1,13,2.63C6.63,4,.71,12.64,1.17,20.51a16.34,16.34,0,0,0,3.92,9.83A17.51,17.51,0,0,1,4,24.39,9.2,9.2,0,0,1,2.43,18.48Z" transform="translate(-1.15 -1)"/><path class="cls-13" d="M56.54,23.12v3.75H45.81V11.57h4.7V23.12Z" transform="translate(-1.15 -1)"/><path class="cls-13" d="M63,11.57v15.3H58.3V11.57Z" transform="translate(-1.15 -1)"/><path class="cls-13" d="M75.23,21.14h-5v5.73H65.67V11.57H76.73v3.64H70.24V17.7h5Z" transform="translate(-1.15 -1)"/><path class="cls-13" d="M89.74,23.22v3.65H78.23V11.57H89.74V15.1H82.83v2.22h5.59v3.4H82.83v2.5Z" transform="translate(-1.15 -1)"/><path class="cls-13" d="M92.74,26.87V10h6.54c2.84,0,5,.85,6.38,2.53a8.82,8.82,0,0,1,2.11,5.84,8.54,8.54,0,0,1-2.27,6.16,7.8,7.8,0,0,1-5.9,2.37ZM97.93,23h1.35a2.58,2.58,0,0,0,2.17-1.25,5.77,5.77,0,0,0,.89-3.4,6.1,6.1,0,0,0-.79-3.18,2.49,2.49,0,0,0-2.27-1.34H97.93Z" transform="translate(-1.15 -1)"/><path class="cls-13" d="M121.55,23.22v3.65H110V11.57h11.51V15.1h-6.91v2.22h5.59v3.4h-5.59v2.5Z" transform="translate(-1.15 -1)"/><path class="cls-13" d="M136.49,26.87h-3.82l-4.19-6.76A26.12,26.12,0,0,1,126.85,17a10.48,10.48,0,0,1,.37,2.51v7.41h-3.81V11.57h4.44l3.56,5.6A22.93,22.93,0,0,1,133,20.11a22.23,22.23,0,0,1-.36-4V11.57h3.82Z" transform="translate(-1.15 -1)"/><path class="cls-13" d="M145.45,15.23V26.87H141V15.23h-3.17V11.57h10.79v3.66Z" transform="translate(-1.15 -1)"/><path class="cls-13" d="M157.56,26.87l-.86-3h-4.1l-.92,3h-3.81l4.72-15.3h5l4.8,15.3Zm-4.16-6.36h2.47l-1.23-4.43Z" transform="translate(-1.15 -1)"/><path class="cls-13" d="M174.5,23.12v3.75H163.77V11.57h4.69V23.12Z" transform="translate(-1.15 -1)"/></svg>