<svg id="Layer_1" data-name="Layer 1" xmlns="http://www.w3.org/2000/svg" xmlns:xlink="http://www.w3.org/1999/xlink" viewBox="0 0 389.58 389.57"><defs><style>.cls-1{fill:none;}.cls-2{fill:url(#linear-gradient);}.cls-3{fill:url(#linear-gradient-2);}.cls-4{fill:url(#linear-gradient-3);}.cls-5{fill:url(#linear-gradient-4);}.cls-6{fill:url(#linear-gradient-5);}.cls-7{fill:url(#linear-gradient-6);}.cls-8{fill:url(#linear-gradient-7);}.cls-9{fill:url(#linear-gradient-8);}.cls-10{fill:url(#linear-gradient-9);}.cls-11{fill:url(#linear-gradient-10);}.cls-12{fill:url(#linear-gradient-11);}</style><linearGradient id="linear-gradient" x1="114.92" y1="352.62" x2="353.54" y2="352.62" gradientTransform="matrix(1, 0, 0, -1, 0, 440)" gradientUnits="userSpaceOnUse"><stop offset="0" stop-color="#6400ff"/><stop offset="1" stop-color="#aa0aff"/></linearGradient><linearGradient id="linear-gradient-2" x1="58.7" y1="402.45" x2="375.43" y2="402.45" gradientTransform="matrix(1, 0, 0, -1, 0, 440)" gradientUnits="userSpaceOnUse"><stop offset="0" stop-color="#8700dc"/><stop offset="1" stop-color="aqua"/></linearGradient><linearGradient id="linear-gradient-3" x1="14.17" y1="66.54" x2="216.45" y2="66.54" xlink:href="#linear-gradient"/><linearGradient id="linear-gradient-4" x1="36.94" y1="224.18" x2="376.6" y2="224.18" gradientTransform="matrix(1, 0, 0, -1, 0, 440)" gradientUnits="userSpaceOnUse"><stop offset="0.06" stop-color="#8700dc"/><stop offset="0.14" stop-color="#820add"/><stop offset="0.27" stop-color="#7425e1"/><stop offset="0.45" stop-color="#5d50e7"/><stop offset="0.65" stop-color="#3d8cef"/><stop offset="0.88" stop-color="#15d8fa"/><stop offset="1" stop-color="aqua"/></linearGradient><linearGradient id="linear-gradient-5" x1="-63.51" y1="248.96" x2="158.91" y2="248.96" gradientTransform="matrix(1, 0, 0, -1, 0, 440)" gradientUnits="userSpaceOnUse"><stop offset="0.09" stop-color="#8700dc"/><stop offset="0.37" stop-color="#5c51e7"/><stop offset="0.8" stop-color="#1acdf8"/><stop offset="1" stop-color="aqua"/></linearGradient><linearGradient id="linear-gradient-6" x1="53.48" y1="361.28" x2="676.24" y2="361.28" xlink:href="#linear-gradient-2"/><linearGradient id="linear-gradient-7" x1="324.7" y1="264.51" x2="551.99" y2="264.51" gradientTransform="matrix(1, 0, 0, -1, 0, 440)" gradientUnits="userSpaceOnUse"><stop offset="0" stop-color="#41af55"/><stop offset="0.03" stop-color="#3eb25c"/><stop offset="0.38" stop-color="#24d3a1"/><stop offset="0.66" stop-color="#10ebd4"/><stop offset="0.88" stop-color="#04f9f3"/><stop offset="1" stop-color="aqua"/></linearGradient><linearGradient id="linear-gradient-8" x1="-303.79" y1="120.21" x2="595.59" y2="120.21" xlink:href="#linear-gradient-2"/><linearGradient id="linear-gradient-9" x1="21.87" y1="362.09" x2="258.2" y2="362.09" xlink:href="#linear-gradient-2"/><linearGradient id="linear-gradient-10" x1="496.73" y1="481.95" x2="192.3" y2="-119.99" xlink:href="#linear-gradient-7"/><linearGradient id="linear-gradient-11" x1="140.95" y1="519.1" x2="-58.64" y2="-33.82" xlink:href="#linear-gradient-7"/></defs><path class="cls-1" d="M193.21,113.26c-59.44,0-109,49.68-109,109.86s49.59,108.32,109,108.32,109.14-48.16,109.14-108.32S252.63,113.26,193.21,113.26Z" transform="translate(1.58 -27.57)"/><path class="cls-2" d="M319.24,122c14.34,4.81,26.86,9.81,37.16,17.39-15.77-62.69-66.94-101.25-132.18-104h-4.13C257.07,49.44,293.37,81.64,319.24,122Z" transform="translate(1.58 -27.57)"/><path class="cls-3" d="M166,47.52c20-7.72,38.71-12,54.11-12.15a112.89,112.89,0,0,0-33.82-7.59c-26.28-1.48-48,5.09-66,16.57A78.11,78.11,0,0,1,166,47.52Z" transform="translate(1.58 -27.57)"/><path class="cls-4" d="M168.91,405.21c-53.49-14.33-99.23-39.54-129.81-75.42,18.11,46.73,58.29,80.34,123.4,86.4,28.59,2.67,55.36-.29,79.64-8.9A158.6,158.6,0,0,1,168.91,405.21Z" transform="translate(1.58 -27.57)"/><path class="cls-5" d="M188.56,60.65A85.77,85.77,0,0,0,166,47.52a308.69,308.69,0,0,0-101.78,66c-17.4,36.86-25.74,76.41-30.58,98.65a247.76,247.76,0,0,0-5.86,56.35C65.4,329.56,158.37,381.07,213.43,384c49.49,2.64,102.27-40.76,129-109.38A296.56,296.56,0,0,0,356.16,229c-2.34-37.43-16.31-74.77-36.94-107C284.37,110.5,238.8,100.78,188.56,60.65Zm4.63,270.84c-59.44,0-109-48.16-109-108.32s49.58-109.86,109-109.86S302.33,163,302.33,223.17s-49.7,108.27-109.12,108.27Z" transform="translate(1.58 -27.57)"/><path class="cls-6" d="M33.62,212.17c4.81-22.24,13.17-61.83,30.58-98.65C36.59,140.76,16,173.28,11.7,207.67c-2.53,20.42,3.89,41.12,16,60.9A247.61,247.61,0,0,1,33.62,212.17Z" transform="translate(1.58 -27.57)"/><path class="cls-7" d="M166,47.52a86,86,0,0,1,22.59,13.13c50.24,40.06,95.8,49.85,130.67,61.34-25.86-40.35-62.16-72.55-99.15-86.54C204.68,35.58,185.93,39.8,166,47.52Z" transform="translate(1.58 -27.57)"/><path class="cls-8" d="M356.18,229c7.15-33.44,6.76-63.6.22-89.6-10.3-7.58-22.82-12.64-37.16-17.39C339.86,154.17,353.84,191.55,356.18,229Z" transform="translate(1.58 -27.57)"/><path class="cls-9" d="M346.76,295.46A159.56,159.56,0,0,0,356.18,229a296.59,296.59,0,0,1-13.77,45.65c-26.7,68.62-79.47,112-129,109.38-55.07-2.94-148-54.49-185.69-115.49a177.63,177.63,0,0,0,11.31,61.27c30.61,35.88,76.35,61.09,129.81,75.42A158.71,158.71,0,0,0,242,407.29C287.76,391.07,324.62,354.5,346.76,295.46Z" transform="translate(1.58 -27.57)"/><path class="cls-10" d="M64.2,113.52A308.51,308.51,0,0,1,166,47.52a78.11,78.11,0,0,0-45.69-3.2C95.08,60.42,77.12,86.18,64.2,113.52Z" transform="translate(1.58 -27.57)"/><path class="cls-11" d="M387.73,214.26c-2.13-40.68-13.33-61.64-31.33-74.88,6.54,26,6.93,56.09-.22,89.6a159.56,159.56,0,0,1-9.42,66.48c-22.14,59-59,95.61-104.72,111.83C324.62,390.43,392.8,310.65,387.73,214.26Z" transform="translate(1.58 -27.57)"/><path class="cls-12" d="M11.7,207.67c4.26-34.39,24.89-66.86,52.5-94.15,12.92-27.34,30.88-53.1,56.09-69.17C54.87,58.66-6.09,147.44-1.32,228.52A168,168,0,0,0,39.07,329.79a177.63,177.63,0,0,1-11.31-61.27C15.59,248.73,9.17,228.09,11.7,207.67Z" transform="translate(1.58 -27.57)"/></svg>